<?xml version="1.0" encoding="UTF-8"?>
<svg width="732px" height="475px" viewBox="0 0 732 475" version="1.1" xmlns="http://www.w3.org/2000/svg" xmlns:xlink="http://www.w3.org/1999/xlink">
    <!-- Generator: Sketch 42 (36781) - http://www.bohemiancoding.com/sketch -->
    <title>Group 2</title>
    <desc>Created with Sketch.</desc>
    <defs></defs>
    <g id="Page-1" stroke="none" stroke-width="1" fill="none" fill-rule="evenodd">
        <g id="Group" transform="translate(-0.288206, -0.693155)" fill-rule="nonzero" fill="#FFFFFF">
            <g id="Group-2">
                <path d="M82.2106171,194.081172 C85.6033331,199.170246 92.3887652,200.866604 97.4778393,200.866604 L121.226852,200.866604 C129.708642,200.866604 136.494074,195.77753 139.88679,188.992098 L173.81395,121.137777 C178.903024,110.959629 175.510308,97.3887652 163.635802,92.2996911 C153.457654,87.2106171 139.88679,90.6033331 134.797716,102.477839 L107.655987,158.457654 L53.3725307,99.0851232 C48.2834567,93.9960492 43.1943826,92.2996911 36.4089505,92.2996911 C29.6235184,92.2996911 24.5344444,97.3887652 19.4453703,102.477839 C17.7490123,104.174197 -12.7854321,156.761296 7.57086417,204.259321 C5.87450615,219.526543 5.87450615,251.757345 27.9271604,278.899073 C34.7125925,285.684506 46.5870986,295.862654 60.1579628,307.73716 L65.2470369,365.413332 L46.5870986,450.231234 C44.8907406,458.713024 51.6761727,470.58753 63.5506789,473.980246 L68.6397529,473.980246 C78.817901,473.980246 87.2996911,467.194814 88.9960492,457.016666 L109.352345,368.806049 L109.352345,362.020616 L105.959629,338.271604 C107.655987,338.271604 107.655987,339.967962 109.352345,339.967962 C112.745061,341.66432 116.137777,343.360678 121.226852,343.360678 L155.154012,343.360678 C160.243086,343.360678 165.33216,341.66432 168.724876,338.271604 C170.421234,336.575246 207.741111,302.648086 214.526543,251.757345 C233.186481,248.364629 272.202715,239.882839 301.040802,239.882839 C341.753394,239.882839 358.716974,250.060987 358.716974,250.060987 C358.716974,250.060987 360.413332,250.060987 360.413332,251.757345 C362.109691,251.757345 362.109691,253.453703 363.806049,253.453703 C365.502407,253.453703 367.198765,253.453703 368.895123,255.150061 L373.984197,255.150061 C431.660369,253.453703 458.802098,200.866604 484.247468,148.279506 C511.389196,93.9960492 536.834567,41.4089505 596.207097,41.4089505 C626.741542,41.4089505 648.794196,49.8907406 664.061418,65.1579628 C679.32864,80.425185 684.417714,100.781481 687.810431,117.745061 C674.239566,114.352345 657.275986,110.959629 635.223332,110.959629 C575.850801,110.959629 548.709073,156.761296 524.960061,195.77753 C499.51469,238.186481 482.55111,261.935493 446.927592,261.935493 C438.445801,261.935493 431.660369,260.239135 424.874937,258.542777 C414.696789,255.150061 401.125925,260.239135 397.733209,270.417283 C394.340493,280.595431 399.429567,294.166296 409.607715,297.559012 C421.482221,302.648086 433.356727,304.344444 446.927592,304.344444 C509.692838,304.344444 538.530925,255.150061 562.279937,217.830185 C586.028949,178.81395 602.992529,153.36858 635.223332,153.36858 C675.935924,153.36858 686.114072,163.546728 687.810431,165.243086 C689.506789,173.724876 697.988579,182.206666 708.166727,182.206666 C718.344875,182.206666 728.523023,175.421234 730.219381,165.243086 C730.219381,163.546728 731.915739,155.064938 731.915739,141.494074 C731.915739,110.959629 726.826665,66.8543208 694.595863,36.3198765 C670.84685,12.5708642 638.616048,0.696358021 596.207097,0.696358021 C509.692838,0.696358021 474.06932,71.9433949 445.231234,131.315926 C421.482221,180.510308 404.518641,211.044753 375.680555,212.741111 C363.806049,205.955679 341.753394,197.473888 301.040802,197.473888 C272.202715,197.473888 234.882839,204.259321 212.830185,209.348395 C211.133827,199.170246 207.741111,190.688456 207.741111,188.992098 C204.348395,178.81395 190.77753,172.028518 180.599382,177.117592 C170.421234,180.510308 163.635802,194.081172 168.724876,204.259321 C168.724876,204.259321 173.81395,217.830185 173.81395,233.097407 C173.81395,265.328209 153.457654,290.77358 144.975864,302.648086 L126.315926,302.648086 C116.137777,295.862654 104.263271,287.380864 92.3887652,278.899073 L90.6924072,278.899073 C78.817901,265.328209 65.2470369,255.150061 61.8543208,250.060987 C46.5870986,231.401049 49.9798147,202.562962 49.9798147,202.562962 C51.6761727,197.473888 49.9798147,192.384814 48.2834567,188.992098 C41.4980246,177.117592 41.4980246,163.546728 44.8907406,151.672222 L82.2106171,194.081172 L82.2106171,194.081172 Z" id="Shape"></path>
                <path d="M200.955679,343.360678 C190.77753,343.360678 182.29574,350.14611 178.903024,360.324258 L158.546728,448.534876 C155.154012,460.409382 163.635802,470.58753 173.81395,473.980246 L178.903024,473.980246 C189.081172,473.980246 197.562962,467.194814 199.259321,457.016666 L216.222901,385.769629 C236.579197,385.769629 256.935493,384.073271 273.899073,380.680555 L253.542777,445.142159 C250.150061,457.016666 255.239135,468.891172 267.113641,472.283888 C268.809999,472.283888 272.202715,473.980246 273.899073,473.980246 C282.380864,473.980246 290.862654,468.891172 294.25537,458.713024 L323.093456,370.502407 C329.878888,368.806049 336.66432,365.413332 343.449752,363.716974 C348.538826,372.198765 357.020616,380.680555 365.502407,387.465987 L353.6279,450.231234 C351.931542,462.10574 358.716974,472.283888 370.591481,475.676604 L373.984197,475.676604 C384.162345,475.676604 392.644135,468.891172 394.340493,458.713024 L409.607715,380.680555 C411.304073,370.502407 406.214999,358.6279 394.340493,356.931542 C368.895123,350.14611 368.895123,312.826234 368.895123,312.826234 C368.895123,300.951728 358.716974,292.469938 348.538826,292.469938 C336.66432,292.469938 328.18253,302.648086 328.18253,312.826234 C328.18253,316.21895 328.18253,321.308024 329.878888,326.397098 C306.129876,331.486172 258.631851,346.753394 200.955679,343.360678 L200.955679,343.360678 Z" id="Shape"></path>
            </g>
        </g>
    </g>
</svg>