<?xml version="1.0" encoding="UTF-8"?>
<svg width="550px" height="487px" viewBox="0 0 550 487" version="1.1" xmlns="http://www.w3.org/2000/svg" xmlns:xlink="http://www.w3.org/1999/xlink">
    <!-- Generator: Sketch 42 (36781) - http://www.bohemiancoding.com/sketch -->
    <title>sms-marketing</title>
    <desc>Created with Sketch.</desc>
    <defs></defs>
    <g id="Page-1" stroke="none" stroke-width="1" fill="none" fill-rule="evenodd">
        <g id="sms-marketing">
            <path d="M246.18,188.385405 C224.703243,181.434595 201.995676,175.607568 178.788649,176.208108 C144.670811,177.094054 111.867027,192.993514 95.6881081,216.491892 C82.0124324,236.404865 80.187027,259.808108 74.2172973,281.950811 C66.8621622,309.230811 52.9010811,335.119459 38.0005405,360.437297 C29.9972973,374.035676 21.5540541,387.919459 20.1627027,402.861622 C18.2540541,423.607027 30.8237838,444.346486 50.6416216,458.248108 C70.4594595,472.14973 96.8297297,479.558378 123.324865,481.288649 C137.422703,482.204324 152.156757,481.496757 164.708649,476.418919 C177.985946,471.067568 187.695676,461.274595 201.026486,455.982703 C213.382162,451.083243 227.783243,450.452973 241.643243,451.172432 C259.592784,452.080416 277.36992,455.126443 294.597838,460.245946 C313.916216,466.025405 331.867027,474.343784 351.143784,480.206486 C370.420541,486.069189 391.968649,489.387027 411.721081,484.671892 C430.266486,480.248108 444.976757,469.343243 458.242162,458.295676 C479.619237,440.537892 499.496425,421.048503 517.671892,400.025405 C529.652973,386.117838 540.813514,371.431351 546.164865,355.181081 C556.385946,324.107568 542.692432,288.925405 512.052973,267.525946 C486.66973,249.789189 452.522162,241.958378 419.082162,237.201622 C388.585405,232.819459 353.302162,232.385405 325.272973,221.224865 C298.54,210.551892 274.221081,197.458919 246.18,188.385405 Z" id="Shape" fill="#009688" fill-rule="nonzero" opacity="0.1"></path>
            <ellipse id="Oval" fill="#009688" fill-rule="nonzero" opacity="0.1" cx="519.943243" cy="292.391892" rx="13.7410811" ry="1.88486486"></ellipse>
            <ellipse id="Oval" fill="#009688" fill-rule="nonzero" opacity="0.1" cx="467.303784" cy="297.731351" rx="13.7410811" ry="1.88486486"></ellipse>
            <ellipse id="Oval" fill="#009688" fill-rule="nonzero" opacity="0.1" cx="405.299459" cy="290.507027" rx="13.7410811" ry="1.88486486"></ellipse>
            <ellipse id="Oval" fill="#009688" fill-rule="nonzero" opacity="0.1" cx="488.37027" cy="312.929189" rx="9.76918919" ry="1.34378378"></ellipse>
            <ellipse id="Oval" fill="#009688" fill-rule="nonzero" opacity="0.1" cx="433.738919" cy="311.585405" rx="9.76918919" ry="1.34378378"></ellipse>
            <path d="M467.006486,297.303243 C467.006486,297.303243 486.283243,234.121622 463.991892,208.815676 C447.343243,189.883784 428.387568,192.167027 419.914595,194.491892 C415.475466,195.673204 411.77951,198.745196 409.806486,202.893514 C406.833514,209.285405 407.380541,219.661081 428.298378,231.772973 C463.325946,252.054595 465.508108,279.875676 465.508108,279.875676 L467.006486,297.303243 Z" id="Shape" fill="#009688" fill-rule="nonzero"></path>
            <path d="M422.929189,203.452432 C422.929189,203.452432 479.748649,221.218919 467.006486,297.303243" id="Shape" stroke="#565987"></path>
            <path d="M456.107568,209.820541 C456.107568,209.820541 448.282703,215.094595 450.756216,223.014595" id="Shape" stroke="#565987"></path>
            <path d="M428.631351,214.511892 C428.631351,214.511892 433.388108,209.648108 439.232973,212.32973" id="Shape" stroke="#565987"></path>
            <path d="M451.089189,238.979459 C451.089189,238.979459 459.484865,234.722162 461.655135,240.055676" id="Shape" stroke="#565987"></path>
            <path d="M471.87027,247.862703 C471.87027,247.862703 465.561622,247.363243 465.448649,250.377838" id="Shape" stroke="#565987"></path>
            <path d="M467.785405,297.808649 C467.785405,297.808649 445.190811,251.888108 439.012973,252.892973 C436.04,253.368649 434.708108,256.27027 434.095676,259.177838 C433.334692,262.941347 433.764888,266.848438 435.326486,270.356216 C438.531351,277.705405 447.135135,291.660541 467.785405,297.808649 Z" id="Shape" fill="#009688" fill-rule="nonzero"></path>
            <path d="M439.179459,261.60973 C439.179459,261.60973 462.874054,295.965405 467.452432,297.475676" id="Shape" stroke="#565987"></path>
            <path d="M437.003243,266.972973 L442.532973,266.972973" id="Shape" stroke="#565987"></path>
            <path d="M443.627027,279.542703 L452.296216,279.911351" id="Shape" stroke="#565987"></path>
            <path d="M448.901081,269.488108 L447.961622,274.001081" id="Shape" stroke="#565987"></path>
            <path d="M458.117297,283.229189 L457.950811,287.331892" id="Shape" stroke="#565987"></path>
            <path d="M467.119459,297.808649 C467.119459,297.808649 489.714054,251.888108 495.891892,252.892973 C498.864865,253.368649 500.196757,256.27027 500.809189,259.177838 C501.570173,262.941347 501.139977,266.848438 499.578378,270.356216 C496.373514,277.705405 487.76973,291.660541 467.119459,297.808649 Z" id="Shape" fill="#009688" fill-rule="nonzero"></path>
            <path d="M495.725405,261.60973 C495.725405,261.60973 472.030811,295.965405 467.452432,297.475676" id="Shape" stroke="#565987"></path>
            <path d="M497.901622,266.972973 L492.371892,266.972973" id="Shape" stroke="#565987"></path>
            <path d="M491.277838,279.542703 L482.608649,279.911351" id="Shape" stroke="#565987"></path>
            <path d="M486.003784,269.488108 L486.943243,274.001081" id="Shape" stroke="#565987"></path>
            <path d="M476.781622,283.229189 L476.954054,287.331892" id="Shape" stroke="#565987"></path>
            <path d="M428.357838,308.535135 C427.744853,308.032585 427.297332,307.357159 427.073514,306.596757 C426.869022,305.807663 427.24303,304.982864 427.971351,304.616757 C428.797838,304.301622 429.677838,304.872432 430.34973,305.455135 C431.021622,306.037838 431.782703,306.685946 432.656757,306.567027 C431.743775,305.736994 431.33302,304.488933 431.574595,303.278919 C431.611131,303.032197 431.713874,302.799996 431.871892,302.607027 C432.32973,302.119459 433.162162,302.333514 433.709189,302.714054 C435.451351,303.944865 435.938919,306.311351 435.950811,308.44 C436.035845,307.649487 436.035845,306.852134 435.950811,306.061622 C435.881812,305.262082 436.213663,304.48034 436.836757,303.974595 C437.249679,303.748326 437.715909,303.637416 438.186486,303.653514 C438.973245,303.541605 439.770564,303.768484 440.380541,304.277838 C441.040541,304.991351 440.868108,306.186486 440.291351,306.971351 C439.642641,307.689903 438.876616,308.293072 438.025946,308.755135 C437.374468,309.140471 436.819341,309.669164 436.402703,310.301081 C436.355945,310.38899 436.316183,310.480443 436.283784,310.574595 L431.372432,310.574595 C430.28039,310.033495 429.266373,309.347483 428.357838,308.535135 L428.357838,308.535135 Z" id="Shape" fill="#009688" fill-rule="nonzero"></path>
            <path d="M514.377838,290.037297 C513.762334,289.537028 513.31425,288.860752 513.093514,288.098919 C512.889764,287.311502 513.263955,286.488779 513.991351,286.124865 C514.817838,285.80973 515.697838,286.380541 516.36973,286.957297 C517.041622,287.534054 517.808649,288.194054 518.682703,288.069189 C517.765491,287.241754 517.352024,285.992314 517.594595,284.781081 C517.630584,284.534865 517.735743,284.303928 517.897838,284.115135 C518.355676,283.627568 519.182162,283.835676 519.729189,284.222162 C521.471351,285.447027 521.958919,287.78973 521.970811,289.948108 C522.058438,289.157737 522.058438,288.360101 521.970811,287.56973 C521.901812,286.77019 522.233663,285.988448 522.856757,285.482703 C523.271669,285.262236 523.736845,285.153626 524.206486,285.167568 C524.989135,285.044386 525.787183,285.260659 526.400541,285.762162 C527.066486,286.46973 526.894054,287.664865 526.311351,288.44973 C525.666864,289.182395 524.900414,289.797969 524.045946,290.269189 C523.394468,290.654525 522.839341,291.183218 522.422703,291.815135 C522.37381,291.901998 522.333962,291.993649 522.303784,292.088649 L517.392432,292.088649 C516.300686,291.542187 515.286851,290.852299 514.377838,290.037297 L514.377838,290.037297 Z" id="Shape" fill="#009688" fill-rule="nonzero"></path>
            <path d="M485.706486,308.535135 C485.093502,308.032585 484.64598,307.357159 484.422162,306.596757 C484.217671,305.807663 484.591679,304.982864 485.32,304.616757 C486.146486,304.301622 487.026486,304.872432 487.698378,305.455135 C488.37027,306.037838 489.131351,306.685946 490.005405,306.567027 C489.091276,305.737584 488.678398,304.489925 488.917297,303.278919 C488.958585,303.032503 489.063067,302.801005 489.220541,302.607027 C489.678378,302.119459 490.510811,302.333514 491.057838,302.714054 C492.8,303.944865 493.287568,306.311351 493.299459,308.44 C493.394382,307.650551 493.404349,306.853197 493.329189,306.061622 C493.260191,305.262082 493.592041,304.48034 494.215135,303.974595 C494.628057,303.748326 495.094287,303.637416 495.564865,303.653514 C496.351623,303.541605 497.148943,303.768484 497.758919,304.277838 C498.418919,304.991351 498.246486,306.186486 497.66973,306.971351 C497.021019,307.689903 496.254994,308.293072 495.404324,308.755135 C494.752847,309.140471 494.197719,309.669164 493.781081,310.301081 C493.734324,310.38899 493.694561,310.480443 493.662162,310.574595 L488.750811,310.574595 C487.64834,310.035812 486.624195,309.349715 485.706486,308.535135 L485.706486,308.535135 Z" id="Shape" fill="#009688" fill-rule="nonzero"></path>
            <path d="M404.407568,271.147027 C404.407568,271.147027 402.564324,273.555135 405.257838,277.188108 C407.951351,280.821081 410.163243,283.895135 409.271351,286.160541 C409.271351,286.160541 405.21027,279.411892 401.904324,279.316757 C398.598378,279.221622 400.768649,275.208108 404.407568,271.147027 Z" id="Shape" fill="#009688" fill-rule="nonzero"></path>
            <path d="M404.407568,271.147027 C404.244601,271.37885 404.116398,271.633252 404.027027,271.902162 C400.804324,275.68973 399.085946,279.227568 402.183784,279.316757 C405.073514,279.4 408.54,284.561081 409.366486,285.857297 C409.366486,285.958378 409.307027,286.059459 409.271351,286.154595 C409.271351,286.154595 405.21027,279.405946 401.904324,279.310811 C398.598378,279.215676 400.768649,275.208108 404.407568,271.147027 Z" id="Shape" fill="#000000" fill-rule="nonzero" opacity="0.1"></path>
            <path d="M400.982703,274.215135 C400.982703,275.065405 401.077838,275.749189 401.196757,275.749189 C401.315676,275.749189 401.404865,275.065405 401.404865,274.215135 C401.404865,273.364865 401.285946,273.769189 401.172973,273.769189 C401.06,273.769189 400.982703,273.370811 400.982703,274.215135 Z" id="Shape" fill="#FFD037" fill-rule="nonzero"></path>
            <path d="M399.805405,275.225946 C400.548649,275.636216 401.202703,275.88 401.256216,275.778919 C401.30973,275.677838 400.756757,275.261622 400.013514,274.857297 C399.27027,274.452973 399.561622,274.744324 399.502162,274.857297 C399.442703,274.97027 399.062162,274.821622 399.805405,275.225946 Z" id="Shape" fill="#FFD037" fill-rule="nonzero"></path>
            <path d="M414.129189,271.147027 C414.129189,271.147027 415.972432,273.555135 413.278919,277.188108 C410.585405,280.821081 408.373514,283.895135 409.271351,286.160541 C409.271351,286.160541 413.326486,279.411892 416.632432,279.316757 C419.938378,279.221622 417.768108,275.208108 414.129189,271.147027 Z" id="Shape" fill="#009688" fill-rule="nonzero"></path>
            <path d="M414.129189,271.147027 C414.292156,271.37885 414.420359,271.633252 414.50973,271.902162 C417.732432,275.68973 419.450811,279.227568 416.352973,279.316757 C413.463243,279.4 409.996757,284.561081 409.17027,285.857297 C409.197694,285.958419 409.231454,286.057714 409.271351,286.154595 C409.271351,286.154595 413.326486,279.405946 416.632432,279.310811 C419.938378,279.215676 417.768108,275.208108 414.129189,271.147027 Z" id="Shape" fill="#000000" fill-rule="nonzero" opacity="0.1"></path>
            <path d="M417.554054,274.215135 C417.554054,275.065405 417.458919,275.749189 417.34,275.749189 C417.221081,275.749189 417.131892,275.065405 417.131892,274.215135 C417.131892,273.364865 417.250811,273.769189 417.363784,273.769189 C417.476757,273.769189 417.554054,273.370811 417.554054,274.215135 Z" id="Shape" fill="#FFD037" fill-rule="nonzero"></path>
            <path d="M418.731351,275.225946 C417.988108,275.636216 417.334054,275.88 417.280541,275.778919 C417.227027,275.677838 417.78,275.261622 418.523243,274.857297 C419.266486,274.452973 418.975135,274.744324 419.034595,274.857297 C419.094054,274.97027 419.474595,274.821622 418.731351,275.225946 Z" id="Shape" fill="#FFD037" fill-rule="nonzero"></path>
            <path d="M416.965405,285.845405 C416.965405,285.845405 411.822162,285.690811 410.27027,284.584865 C408.718378,283.478919 402.35027,282.158919 401.945946,283.930811 C401.541622,285.702703 394.216216,292.742703 400.019459,292.79027 C405.822703,292.837838 413.528649,291.886486 415.074595,290.941081 C416.620541,289.995676 416.965405,285.845405 416.965405,285.845405 Z" id="Shape" fill="#A8A8A8" fill-rule="nonzero"></path>
            <path d="M399.936216,292.171892 C405.745405,292.219459 413.439459,291.268108 414.991351,290.322703 C416.180541,289.609189 416.638378,287.028649 416.775135,285.839459 L416.941622,285.839459 C416.941622,285.839459 416.620541,290.001622 415.068649,290.935135 C413.516757,291.868649 405.828649,292.831892 400.013514,292.784324 C398.336757,292.784324 397.76,292.18973 397.78973,291.291892 C398.045405,291.832973 398.687568,292.165946 399.936216,292.171892 Z" id="Shape" fill="#000000" fill-rule="nonzero" opacity="0.2"></path>
            <circle id="Oval" fill="#009688" fill-rule="nonzero" opacity="0.1" cx="76.6967568" cy="35.9848649" r="12.8610811"></circle>
            <ellipse id="Oval" fill="#009688" fill-rule="nonzero" opacity="0.1" cx="299.140541" cy="15.6854054" rx="12.8610811" ry="12.8610811"></ellipse>
            <ellipse id="Oval" fill="#009688" fill-rule="nonzero" opacity="0.1" cx="503.175676" cy="66.4935135" rx="12.8610811" ry="12.8610811"></ellipse>
            <ellipse id="Oval" fill="#009688" fill-rule="nonzero" opacity="0.1" cx="21.5540541" cy="153.910811" rx="21.5540541" ry="21.5540541"></ellipse>
            <ellipse id="Oval" fill="#009688" fill-rule="nonzero" opacity="0.1" cx="42.2162162" cy="260.343243" rx="21.5540541" ry="21.5540541"></ellipse>
            <circle id="Oval" fill="#009688" fill-rule="nonzero" opacity="0.1" cx="445.898378" cy="166.462703" r="21.5540541"></circle>
            <path d="M267.662703,206.823784 C266.901622,206.895135 266.128649,206.859459 265.373514,206.978378 C264.105758,207.230691 262.895994,207.716613 261.805946,208.411351 C256.395135,211.491351 251.287568,215.724865 249.045946,221.528108 C248.861518,221.884836 248.802859,222.293359 248.879459,222.687568 C249.012354,223.012544 249.230012,223.295909 249.50973,223.508108 L251.614595,225.422703 C251.880668,225.69889 252.197664,225.920989 252.548108,226.076757 C253.116058,226.225216 253.714782,226.206635 254.272432,226.023243 C260.057838,224.697297 266.205946,223.169189 270.267027,218.840541 C272.193514,216.789189 273.971351,213.964865 276.807568,213.887568 C277.996757,213.887568 279.108649,214.345405 280.28,214.482162 C281.451351,214.618919 282.860541,214.119459 283.14,212.977838 C283.230683,212.410069 283.164902,211.82832 282.94973,211.295135 L281.201622,205.474054 C280.725946,203.880541 275.927568,203.797297 274.328108,204.082703 C271.89027,204.504865 270.249189,206.585946 267.662703,206.823784 Z" id="Shape" fill="#65617D" fill-rule="nonzero"></path>
            <path d="M288.259459,239.615676 C288.176216,241.607568 288.336757,243.623243 288.00973,245.597297 C287.722102,247.153916 287.22402,248.664164 286.529189,250.086486 C285.459756,252.373603 284.100882,254.513829 282.485946,256.454595 C280.981622,258.238378 279.18,259.915135 276.95027,260.616757 C274.720541,261.318378 271.979459,260.812973 270.588108,258.934054 C269.452432,257.405946 269.398919,255.366486 269.482162,253.457838 C269.684324,248.766486 270.421622,244.00973 272.526486,239.811892 C273.43027,238.028108 274.577838,236.327568 275.499459,234.525946 C277.425946,230.785946 278.525946,226.35027 281.84973,223.76973 C283.934974,224.733227 286.164939,225.345965 288.44973,225.583243 C289.335676,225.678378 291.868649,225.737838 292.165946,226.873514 C292.368108,227.640541 290.703243,229.787027 290.382162,230.542162 C289.113057,233.407193 288.393022,236.48499 288.259459,239.615676 Z" id="Shape" fill="#65617D" fill-rule="nonzero"></path>
            <path d="M264.68973,153.863243 C265.403243,155.682703 266.307027,157.466486 266.473514,159.404865 C266.592432,160.594054 266.473514,161.783243 266.473514,162.972432 C266.573625,164.60173 266.844663,166.215999 267.282162,167.788649 L270.594054,181.345405 C271.087568,183.372973 271.581081,185.454054 271.325405,187.523243 C271.152973,188.902703 270.653514,190.240541 270.659459,191.625946 C270.722691,192.67649 270.889997,193.718168 271.158919,194.735676 C271.785968,197.879186 271.614238,201.129788 270.659459,204.18973 C270.561646,204.420275 270.526765,204.672648 270.558378,204.921081 C270.641622,205.307568 271.016216,205.545405 271.355135,205.72973 C274.920729,207.680649 278.807605,208.975603 282.830811,209.552973 C286.462012,200.914568 288.998808,191.85601 290.382162,182.588108 C291.226486,176.975135 291.636757,171.290811 292.718919,165.719459 C292.743608,165.397627 292.880372,165.094642 293.105405,164.863243 C293.50973,164.524324 294.122162,164.738378 294.597838,164.964324 C300.674243,167.886313 306.52005,171.265392 312.084865,175.072432 C316.046353,169.942588 317.525392,163.3185 316.122162,156.990811 C315.423257,154.295956 314.426108,151.687415 313.149189,149.213514 C311.788754,146.204262 310.093361,143.357996 308.095135,140.728649 C303.683243,135.198919 297.214054,131.667027 290.554595,129.270811 C286.505405,127.808108 282.337297,126.725946 278.175135,125.62 C275.844324,124.995676 271.937838,122.962162 269.672432,124.543784 C267.294054,126.190811 265.712432,130.275676 264.737297,132.868108 C263.53359,136.083577 262.878354,139.478342 262.798919,142.910811 C262.701002,146.650572 263.343598,150.37278 264.68973,153.863243 Z" id="Shape" fill="#3F3D56" fill-rule="nonzero"></path>
            <path d="M312.489189,170.208649 C311.246486,171.564324 312.292973,173.728649 312.055135,175.56 C311.899602,176.38693 311.604003,177.181228 311.181081,177.908649 L305.490811,189.081081 C304.539688,190.757694 303.82723,192.558854 303.374054,194.432432 C302.595135,198.463784 304.194595,202.994595 302.149189,206.556216 C301.489189,207.703784 300.466486,208.690811 300.192973,209.987027 C299.990811,210.932432 300.192973,211.919459 300.091892,212.876757 C299.955135,214.000541 299.354595,215.011351 299.021622,216.093514 C298.761893,217.133348 298.577094,218.190476 298.468649,219.256757 C297.747277,223.803737 295.366163,227.921962 291.785405,230.815676 C289.733613,232.554577 287.099004,233.451193 284.412432,233.324865 C281.760541,233.098919 279.126486,231.297297 278.585405,228.692973 C278.401081,227.807027 278.436757,226.82 277.883784,226.100541 C277.098919,225.071892 275.445946,225.03027 274.690811,223.977838 L277.616216,219.161622 C278.525946,217.669189 279.453514,216.111351 279.602162,214.369189 C279.780541,212.234595 278.751892,210.105946 279.120541,207.995135 C279.435676,206.181622 280.737838,204.671351 281.13027,202.875676 C281.617838,200.645946 280.642703,198.392432 280.113514,196.168649 C278.817297,190.692432 280.268108,184.984324 281.712973,179.52 C283.633514,172.28973 285.601622,164.946486 289.49027,158.554595 C297.24973,162.734595 304.384865,166.748108 312.489189,170.208649 Z" id="Shape" fill="#3F3D56" fill-rule="nonzero"></path>
            <path d="M312.560541,56.9502703 C313.024324,58.2108108 312.774595,59.6081081 312.685405,60.9459459 C312.477297,63.9189189 313.107568,66.8918919 312.964865,69.9064865 C312.822162,72.9210811 311.894595,75.7989189 311.252432,78.7302703 C309.427027,87.0962162 309.867027,95.812973 308.214054,104.214595 C306.174595,114.62 300.96,124.311892 299.931351,134.871892 C299.604324,138.225405 299.645946,141.816757 297.808649,144.647027 C286.89075,139.841183 276.57029,133.77901 267.056216,126.583243 C269.149189,111.058378 271.218378,95.4562162 270.938919,79.7945946 C270.803468,77.9065707 270.935586,76.0088783 271.331351,74.1578378 C271.827407,72.6030046 272.539992,71.1257916 273.448108,69.7697297 C275.749189,66.0297297 278.282162,62.4383784 280.809189,58.852973 C282.426486,56.5578378 284.174595,54.1497297 286.755135,53.0735135 C289.335676,51.9972973 292.391892,52.4789189 295.204324,52.9902703 C298.58955,53.6086486 301.970811,54.227027 305.348108,54.8454054 C307.458919,55.2318919 311.656757,54.4945946 312.560541,56.9502703 Z" id="Shape" fill="#009688" fill-rule="nonzero"></path>
            <path d="M231.142703,116.439459 C229.755622,115.05182 228.242837,113.795811 226.623784,112.687568 C228.734595,110.118919 228.318378,106.402703 228.835676,103.114595 C229.259432,100.978775 229.903039,98.8925323 230.756216,96.8891892 C230.97027,96.3243243 231.273514,95.7 231.862162,95.5513514 C232.223585,95.5066328 232.590301,95.5643186 232.920541,95.7178378 C234.704324,96.3481081 238.426486,96.3124324 239.811892,97.4659459 C241.482703,98.8691892 239.954595,101.806486 239.324324,103.560541 C238.878378,104.737838 232.028649,117.331351 231.142703,116.439459 Z" id="Shape" fill="#BE6F72" fill-rule="nonzero"></path>
            <path d="M236.321622,227.48 C237.217211,228.929686 237.802332,230.549396 238.04,232.236757 C238.182703,233.925405 237.564324,235.774595 236.125405,236.666486 C234.686486,237.558378 232.623243,237.261081 230.910811,236.725946 C223.564715,234.336798 217.584968,228.930155 214.47027,221.861081 C213.929189,220.612432 213.459459,219.286486 212.502162,218.323243 C211.79108,217.698185 211.001544,217.168496 210.153514,216.747568 C207.816757,215.427568 205.563243,213.691351 204.481081,211.22973 C203.398919,208.768108 203.886486,205.48 206.128108,204.017297 C207.539367,203.201971 209.218994,202.987733 210.78973,203.422703 C212.339571,203.862866 213.823415,204.508798 215.201622,205.343243 C217.508649,206.597838 220.327027,207.68 222.336757,209.350811 C224.120541,210.819459 225.72,212.805405 227.242162,214.535676 C228.98541,216.526421 230.618998,218.610586 232.135676,220.778919 C232.623243,221.415135 236.731892,226.903243 236.321622,227.48 Z" id="Shape" fill="#65617D" fill-rule="nonzero"></path>
            <path d="M192.737838,214.999459 C192.535649,217.991291 192.007291,220.952091 191.162162,223.829189 C190.680541,225.446486 190.044324,227.129189 188.706486,228.157838 C187.574801,228.89148 186.292465,229.360925 184.954595,229.531351 C184.487917,229.657882 184.000388,229.688226 183.521622,229.620541 C182.701081,229.448108 182.118378,228.740541 181.612973,228.068649 C179.627027,225.440541 177.694595,222.663784 176.856216,219.476757 C175.667027,214.856757 176.856216,209.903784 178.919459,205.587027 C179.661102,203.846803 180.742582,202.272087 182.100541,200.955135 C183.778357,199.576302 185.794236,198.671004 187.939459,198.332973 C190.133514,197.892973 192.827027,196.953514 192.987568,199.623243 C193.222388,204.748881 193.138984,209.88415 192.737838,214.999459 L192.737838,214.999459 Z" id="Shape" fill="#65617D" fill-rule="nonzero"></path>
            <path d="M225.636757,103.239459 C229.739459,105.362162 234.294054,108.061622 235.15027,112.598378 C235.679459,115.369189 234.662703,118.205405 234.829189,121.023784 C234.977838,123.503243 236.018378,125.899459 235.887568,128.372973 C235.748674,129.541793 235.550218,130.702762 235.292973,131.851351 C234.942162,134.045405 235.15027,136.281081 235.061081,138.498919 C234.864865,143.493514 233.194054,148.297838 232.385405,153.227027 C231.813042,156.746654 231.679228,160.323663 231.987027,163.876216 C232.183243,166.171351 232.581622,168.454595 232.581622,170.761622 C232.581669,172.423073 232.444446,174.081688 232.171351,175.720541 C231.374377,180.869466 229.769005,185.860167 227.414595,190.508108 C224.554595,196.138919 224.958919,203.404865 225.262162,209.713514 C225.39465,210.582948 225.283507,211.472092 224.941081,212.282162 C224.191892,213.643784 222.324865,213.84 220.778919,213.709189 C215.045926,213.185336 209.729098,210.492894 205.914054,206.181622 C205.357552,205.639588 204.979972,204.940443 204.831892,204.177838 C204.701081,202.905405 205.723784,201.858919 206.461081,200.806486 C208.97027,197.238919 208.334054,192.404865 208.631351,188.022703 C208.848375,184.834547 209.610596,181.70723 210.884865,178.776757 C211.622162,177.082162 212.543784,175.411351 212.71027,173.568108 C212.864865,171.84973 212.341622,170.149189 211.824324,168.508108 L210.040541,162.847568 C207.275676,154.053514 204.492973,145.205946 200.307027,136.994595 C197.560723,138.781433 195.595006,141.544063 194.807027,144.724324 C193.249189,150.325405 195.467027,156.580541 193.344324,161.967568 C192.992881,162.714492 192.700631,163.48786 192.47027,164.280541 C192.3453,164.964745 192.297434,165.660805 192.327568,166.355676 C192.382667,172.151442 192.735927,177.940536 193.385946,183.7 C193.418003,184.57231 193.66296,185.423536 194.099459,186.179459 C194.45027,186.684865 194.961622,187.059459 195.336216,187.541081 C196.376757,188.890811 196.180541,190.781622 195.930811,192.464324 L194.741622,200.42 C194.720487,200.82338 194.586582,201.212734 194.355135,201.543784 C194.07473,201.81536 193.725045,202.004601 193.344324,202.090811 C189.566055,203.264075 185.583101,203.62874 181.654595,203.161081 C180.495135,203.024324 179.442703,202.245405 178.473514,201.591351 C178.372432,200.402162 179.852973,199.611351 179.906486,198.428108 C179.849044,197.727048 179.523139,197.075239 178.996757,196.608649 C176.784865,194.111351 174.144865,191.459459 174.168649,188.123784 C174.168649,187.24973 174.376757,186.375676 174.347027,185.501622 C174.26973,183.26 172.723784,181.339459 172.182703,179.181081 C171.516757,176.511351 172.402703,173.740541 172.741622,171.011351 C173.205405,167.336757 172.658378,163.614595 172.147027,159.945946 L170.155135,146.484324 C169.923593,144.394907 169.509764,142.329742 168.918378,140.312432 C168.168535,138.326215 167.28861,136.391572 166.284324,134.521081 C164.381622,130.656216 162.817838,126.636757 161.26,122.629189 C160.764949,121.540331 160.453534,120.377043 160.338378,119.186486 C160.249189,117.147027 161.301622,115.220541 162.60973,113.650811 C165.059801,110.733755 168.403785,108.706465 172.123243,107.883243 C172.744863,107.709857 173.398287,107.683394 174.031892,107.805946 C174.564734,107.982748 175.064909,108.245892 175.512432,108.584865 C184.830145,114.679182 196.463958,116.058869 206.948649,112.312973 C207.543243,112.764865 208.643243,112.568649 209.327027,112.247568 C211.235676,111.373514 212.793514,109.916757 214.47027,108.68 C217.591892,106.313514 221.801622,104.065946 225.636757,103.239459 Z" id="Shape" fill="#3F3D56" fill-rule="nonzero"></path>
            <path d="M102.395135,255.937297 C102.710831,256.848281 103.185972,257.695884 103.798378,258.440541 C105.950811,261.247027 108.953514,263.488649 110.338919,266.764865 C110.63027,267.466486 110.844324,268.203784 111.111892,268.917297 C111.925626,271.070786 113.252237,272.993351 114.976757,274.518378 C116.292201,275.610306 117.721542,276.557219 119.24,277.342703 C121.868108,278.775676 124.71027,280.071892 127.695135,279.994595 C128.295295,279.981696 128.892746,279.910002 129.478919,279.780541 C130.407985,279.587924 131.303566,279.259343 132.136757,278.805405 C134.057297,277.747027 135.704324,275.677838 135.323784,273.519459 C135.246982,273.108002 135.117067,272.708263 134.937297,272.33027 C134.621927,271.728841 134.258017,271.154142 133.849189,270.611892 C132.844324,269.220541 131.80973,267.793514 130.341081,266.901622 C128.688108,265.890811 126.607027,265.641081 125.120541,264.392432 C124.534017,263.86163 124.027333,263.248802 123.616216,262.572973 C122.268922,260.502131 121.264999,258.227243 120.643243,255.836216 C120.191351,254.052432 119.888108,252.096216 118.585946,250.788108 C117.283784,249.48 115.494054,249.182703 113.757838,248.885405 C113.171105,248.764406 112.5731,248.706599 111.974054,248.712973 C111.123784,248.742703 110.243784,248.986486 109.447027,248.588108 C108.65027,248.18973 108.382703,247.624865 107.419459,247.702162 C106.652756,247.805549 105.93004,248.120579 105.332432,248.611892 C103.072973,250.282703 101.574595,253.255676 102.395135,255.937297 Z" id="Shape" fill="#3F3D56" fill-rule="nonzero"></path>
            <path d="M123.521081,258.642703 C123.907568,260.658378 124.502162,262.804865 126.06,264.118919 C127.052973,264.975135 128.438378,265.51027 128.931892,266.717297 C129.425405,267.924324 128.789189,269.440541 127.968649,270.546486 C126.920957,271.94493 125.62252,273.136509 124.139459,274.060541 C122.878919,274.839459 121.374595,275.434054 119.92973,275.089189 C118.740541,274.80973 117.801081,273.953514 116.915135,273.127027 C114.881622,271.242162 112.800541,269.285946 111.658919,266.758919 C110.46973,264.095135 110.41027,261.009189 109.114054,258.387027 C108.358919,256.858919 107.193514,255.521081 106.735676,253.88 C106.53044,253.2868 106.53044,252.641849 106.735676,252.048649 C107.187852,251.18299 108.089984,250.646774 109.066486,250.663243 C110.023856,250.695203 110.967993,250.896511 111.855135,251.257838 C114.539503,252.214743 117.287225,252.983628 120.078378,253.558919 C121.19027,253.767027 121.862162,253.761081 122.456757,254.837297 C123.006069,256.043136 123.365108,257.326851 123.521081,258.642703 Z" id="Shape" fill="#FBBEBE" fill-rule="nonzero"></path>
            <path d="M130.418378,275.683784 C129.977581,276.358035 129.665131,277.107915 129.496757,277.895676 C129.356432,278.508197 129.334234,279.141863 129.431351,279.762703 C130.360418,279.570086 131.255999,279.241506 132.089189,278.787568 C134.00973,277.729189 135.656757,275.66 135.276216,273.501622 C135.199414,273.090165 135.069499,272.690425 134.88973,272.312432 C134.312235,272.183042 133.709544,272.371099 133.308108,272.805946 C132.200903,273.608918 131.22591,274.5799 130.418378,275.683784 L130.418378,275.683784 Z" id="Shape" fill="#FBBEBE" fill-rule="nonzero"></path>
            <path d="M109.108108,230.506486 C108.849414,231.063265 108.772447,231.687321 108.888108,232.29027 C109.161622,233.479459 110.380541,234.163243 111.480541,234.704324 L121.939459,239.817838 C122.665024,240.153524 123.371666,240.52868 124.056216,240.941622 C125.84,242.035676 127.243243,243.581622 128.765405,244.996757 C130.287568,246.411892 131.982162,247.737838 133.997838,248.237297 C136.010041,248.678238 138.113055,248.402743 139.943784,247.458378 C140.930344,246.966883 141.846305,246.344909 142.667027,245.609189 C143.377465,244.985962 144.033863,244.303706 144.629189,243.56973 C145.140565,243.029781 145.506741,242.369027 145.693514,241.649189 C145.88973,240.561081 145.348649,239.490811 144.718378,238.592973 C144.355449,238.075367 143.958158,237.582727 143.529189,237.118378 C139.563243,232.736216 133.064324,230.464865 127.475135,229.572973 C125.251351,229.216216 123.140541,228.383784 121,227.705946 C118.859459,227.028108 116.594054,226.516757 114.37027,226.831892 C112.146486,227.147027 109.958378,228.425405 109.108108,230.506486 Z" id="Shape" fill="#3F3D56" fill-rule="nonzero"></path>
            <path d="M109.108108,230.506486 C108.849414,231.063265 108.772447,231.687321 108.888108,232.29027 C109.161622,233.479459 110.380541,234.163243 111.480541,234.704324 L121.939459,239.817838 C122.665024,240.153524 123.371666,240.52868 124.056216,240.941622 C125.84,242.035676 127.243243,243.581622 128.765405,244.996757 C130.287568,246.411892 131.982162,247.737838 133.997838,248.237297 C136.010041,248.678238 138.113055,248.402743 139.943784,247.458378 C140.930344,246.966883 141.846305,246.344909 142.667027,245.609189 C143.377465,244.985962 144.033863,244.303706 144.629189,243.56973 C145.140565,243.029781 145.506741,242.369027 145.693514,241.649189 C145.88973,240.561081 145.348649,239.490811 144.718378,238.592973 C144.355449,238.075367 143.958158,237.582727 143.529189,237.118378 C139.563243,232.736216 133.064324,230.464865 127.475135,229.572973 C125.251351,229.216216 123.140541,228.383784 121,227.705946 C118.859459,227.028108 116.594054,226.516757 114.37027,226.831892 C112.146486,227.147027 109.958378,228.425405 109.108108,230.506486 Z" id="Shape" fill="#000000" fill-rule="nonzero" opacity="0.1"></path>
            <path d="M135.282162,233.770811 C136.086294,234.674005 136.747957,235.69457 137.244324,236.797297 C137.690908,237.519607 137.850056,238.383249 137.69027,239.217297 C137.456477,239.778721 137.081676,240.270263 136.602162,240.644324 L135.561622,241.607568 C135.247344,241.934249 134.881809,242.207396 134.479459,242.416216 C133.91025,242.629674 133.302462,242.720842 132.695676,242.683784 C131.298378,242.683784 129.794054,242.683784 128.658378,241.845405 C127.106486,240.727568 126.827027,238.414595 127.534595,236.636757 C128.242162,234.858919 129.722703,233.515135 131.215135,232.314054 C132.428108,231.332973 134.431892,232.872973 135.282162,233.770811 Z" id="Shape" fill="#FBBEBE" fill-rule="nonzero"></path>
            <path d="M141.632432,239.918919 C141.439967,240.905485 141.532784,241.926476 141.9,242.862162 C142.161622,243.754054 142.417297,244.645946 142.672973,245.555676 C142.672973,245.555676 142.672973,245.555676 142.672973,245.591351 C143.383411,244.968124 144.039809,244.285868 144.635135,243.551892 C145.146511,243.011943 145.512687,242.351189 145.699459,241.631351 C145.895676,240.543243 145.354595,239.472973 144.724324,238.575135 C144.361395,238.057529 143.964104,237.564889 143.535135,237.100541 C143.255676,237.463243 143.011892,237.82 142.80973,238.051892 C142.289436,238.583782 141.888137,239.220186 141.632432,239.918919 Z" id="Shape" fill="#FBBEBE" fill-rule="nonzero"></path>
            <path d="M114.310811,195.603784 C113.08,200.776757 113.603243,206.187568 114.257297,211.467568 C114.756757,215.487027 115.315676,219.649189 114.126486,223.52 C113.686486,224.964865 112.990811,226.433514 113.258378,227.925946 C113.763784,230.738378 117.152973,231.820541 119.959459,232.34973 C120.769111,232.555616 121.610468,232.606057 122.438919,232.498378 C123.270006,232.272066 124.041301,231.866121 124.698378,231.309189 C128.68761,228.409183 131.717314,224.381313 133.397297,219.744324 C134.461622,216.640541 134.800541,213.340541 135.127568,210.076216 C135.674595,204.582162 136.227568,199.022703 135.424865,193.564324 C135.187027,191.958919 134.83027,190.371351 134.681622,188.754054 C134.494462,185.941119 134.6502,183.115861 135.145405,180.340541 C136.169247,173.465273 137.719754,166.678819 139.783243,160.041081 C134.121273,160.792864 128.366002,159.753256 123.324865,157.068108 C124.3,157.591351 123.182162,165.933514 123.063243,167.104865 C122.702479,170.596929 122.072313,174.055882 121.178378,177.450811 C119.519459,183.795135 115.815135,189.301081 114.310811,195.603784 Z" id="Shape" fill="#3F3D56" fill-rule="nonzero"></path>
            <path d="M114.310811,195.603784 C113.08,200.776757 113.603243,206.187568 114.257297,211.467568 C114.756757,215.487027 115.315676,219.649189 114.126486,223.52 C113.686486,224.964865 112.990811,226.433514 113.258378,227.925946 C113.763784,230.738378 117.152973,231.820541 119.959459,232.34973 C120.769111,232.555616 121.610468,232.606057 122.438919,232.498378 C123.270006,232.272066 124.041301,231.866121 124.698378,231.309189 C128.68761,228.409183 131.717314,224.381313 133.397297,219.744324 C134.461622,216.640541 134.800541,213.340541 135.127568,210.076216 C135.674595,204.582162 136.227568,199.022703 135.424865,193.564324 C135.187027,191.958919 134.83027,190.371351 134.681622,188.754054 C134.494462,185.941119 134.6502,183.115861 135.145405,180.340541 C136.169247,173.465273 137.719754,166.678819 139.783243,160.041081 C134.121273,160.792864 128.366002,159.753256 123.324865,157.068108 C124.3,157.591351 123.182162,165.933514 123.063243,167.104865 C122.702479,170.596929 122.072313,174.055882 121.178378,177.450811 C119.519459,183.795135 115.815135,189.301081 114.310811,195.603784 Z" id="Shape" fill="#000000" fill-rule="nonzero" opacity="0.1"></path>
            <path d="M145.182162,165.291351 C147.560541,172.182703 147.037297,179.71027 146.008649,186.928649 C144.98,194.147027 143.463784,201.365405 143.90973,208.637297 C144.082162,211.491351 144.545946,214.422703 143.713514,217.151892 C143.250896,218.483421 142.638501,219.758081 141.888108,220.951351 L122.914595,253.761081 C121.931847,255.490854 120.143333,256.608676 118.157838,256.734054 C116.13027,256.876757 114.138378,256.210811 112.247568,255.467568 C110.991195,255.051201 109.823617,254.403891 108.804865,253.558919 C107.779834,252.705153 107.237867,251.403543 107.354054,250.074595 C108.204324,244.378378 109.482703,238.545405 110.428108,232.831351 C111.071123,228.954297 112.473445,225.24239 114.554595,221.908649 C116.023243,219.53027 117.830811,217.395676 119.097297,214.922162 C122.736216,207.834595 121.475676,199.189189 118.669189,191.732973 C115.862703,184.276757 111.682703,177.355676 109.452973,169.732973 C108.791946,167.611804 108.414082,165.412592 108.329189,163.192432 C108.273685,158.562036 110.06205,154.099678 113.3,150.789189 C113.76788,150.259306 114.357624,149.851179 115.018378,149.6 C115.790799,149.420813 116.595513,149.43511 117.361081,149.641622 C127.927027,151.692973 141.691892,155.111892 145.182162,165.291351 Z" id="Shape" fill="#3F3D56" fill-rule="nonzero"></path>
            <path d="M315.72973,62.4086486 C316.074595,65.012973 315.135135,67.647027 313.797297,69.9005405 C308.737297,78.3437838 297.071351,82.0778378 288.051351,78.1475676 C284.335135,76.5243243 281.18973,73.8486486 278.10973,71.2086486 C277.075135,70.3167568 275.998919,69.3832432 275.475676,68.1227027 C274.554054,65.892973 275.665946,63.2351351 277.479459,61.6416216 C279.292973,60.0481081 281.641622,59.2632432 283.978378,58.5556757 C291.69027,56.1535135 313.892432,48.5783784 315.72973,62.4086486 Z" id="Shape" fill="#FBBEBE" fill-rule="nonzero"></path>
            <path d="M311.216757,54.1437838 C318.238919,59.7924324 328.46,65.1735135 336.415676,69.3594595 C339.121081,70.7864865 342.123784,72.3918919 343.098919,75.3054054 C343.622162,76.8632432 343.44973,78.5578378 343.277297,80.1989189 C342.944324,83.3562162 342.599459,86.5610811 341.380541,89.4924324 C339.947568,92.9232432 337.414595,95.7535135 335.381081,98.8691892 C331.813514,104.327568 329.720541,110.761081 325.314595,115.583243 C328.287568,125.459459 331.54,135.323784 332.598378,145.574595 C332.656871,145.856514 332.625684,146.14967 332.509189,146.412973 C332.387514,146.586082 332.229159,146.730226 332.045405,146.835135 L324.648649,151.687027 C323.842101,152.157682 323.120496,152.760695 322.514054,153.470811 C321.205946,155.171351 321.378378,157.561622 320.56973,159.541622 C319.673934,161.494491 318.020505,162.997608 315.991351,163.703784 C313.970079,164.400344 311.816857,164.628069 309.694595,164.36973 C306.992913,164.199613 304.391312,163.283701 302.178919,161.723784 C300.294054,160.296757 298.95027,158.292973 297.654054,156.318919 C296.693682,154.972536 295.89538,153.517631 295.275676,151.984324 C294.484865,149.796216 294.437297,147.411892 294.467027,145.081081 C294.486662,140.645804 294.910578,136.221551 295.733514,131.863243 C296.078378,130.132973 296.506486,128.426486 296.78,126.684324 C297.327027,123.176216 297.22,119.596757 297.624324,116.070811 C298.176736,112.104945 299.061839,108.192588 300.27027,104.375135 C300.931495,102.010626 301.44777,99.6079603 301.816216,97.1805405 C302.511892,92.9113514 303.897297,88.7908108 305.282703,84.6940541 L307.661081,77.6718919 C308.166486,76.1556757 308.677838,74.6454054 309.278378,73.1648649 C310.396216,70.4 311.835135,67.7064865 312.215676,64.7572973 C312.637838,61.5405405 309.165405,57.7232432 310.336757,54.7027027 C310.431892,54.3697297 310.949189,53.9297297 311.216757,54.1437838 Z" id="Shape" fill="#3F3D56" fill-rule="nonzero"></path>
            <path d="M341.196216,73.6464865 C342.843243,74.3897297 343.752973,76.1616216 344.341622,77.8740541 C345.668558,81.7333471 345.987837,85.867596 345.269189,89.8848649 C345.0369,90.894768 344.877927,91.9201434 344.793514,92.952973 C344.805846,94.1501357 344.923234,95.3439057 345.144324,96.5205405 C345.738919,101.069189 345.144324,105.689189 345.340541,110.279459 C345.542703,115.440541 346.666486,120.892973 344.502162,125.584324 C343.063243,128.7 340.34,131.018919 337.652432,133.123784 C327.646621,140.922042 316.606653,147.293486 304.848649,152.055676 C306.876216,149.617838 306.911892,145.949189 305.562162,143.077297 C304.212432,140.205405 301.703243,138.047027 299.021622,136.37027 C302.434873,135.611663 305.740453,134.431241 308.862162,132.856216 C315.093514,129.692973 320.432973,125.061081 325.707027,120.476757 C326.485039,119.917367 327.090655,119.151078 327.455135,118.264865 C327.99027,116.481081 326.515676,114.786486 325.492973,113.222703 C322.395135,108.465946 323.114595,102.252432 324.410811,96.7464865 C325.855676,90.7113514 327.978378,84.7 331.849189,79.8481081 C334.263243,76.8156757 337.414595,74.4848649 341.196216,73.6464865 Z" id="Shape" fill="#3F3D56" fill-rule="nonzero"></path>
            <path d="M304.325405,152.204324 C303.790966,153.075441 303.097038,153.837955 302.28,154.451892 C300.496216,155.641081 298.046486,155.189189 296.054595,154.344865 C294.203484,153.559729 292.495577,152.472696 291.000541,151.128108 C290.357828,150.444777 289.598828,149.881063 288.758919,149.463243 C287.201081,148.868649 285.024865,149.314595 284.150811,147.881622 C284.049107,147.73113 283.999027,147.551679 284.008108,147.37027 C284.061622,146.852973 284.739459,146.71027 285.262703,146.680541 C287.690183,146.520053 290.046298,145.793058 292.142162,144.557838 C291.472712,144.074041 290.89993,143.468989 290.453514,142.774054 C290.268372,142.531521 290.16809,142.234852 290.168108,141.92973 C290.240757,141.598153 290.422989,141.300717 290.685405,141.085405 C294.594585,137.396174 300.346701,136.437488 305.241081,138.659459 C305.708197,138.848455 306.118042,139.155839 306.43027,139.551351 C306.650343,139.916022 306.79774,140.319847 306.864324,140.740541 C307.250811,142.405405 308.648108,144.902703 308.142703,146.585405 C307.583784,148.517838 305.472973,150.569189 304.325405,152.204324 Z" id="Shape" fill="#FBBEBE" fill-rule="nonzero"></path>
            <path d="M263.78,144.706486 C271.176757,136.162162 274.482703,124.918378 277.550811,114.043243 L279.744865,106.313514 L285.036757,87.6967568 C285.815676,84.9497297 286.594595,82.2027027 287.111892,79.4021622 C287.997838,74.5681081 288.081081,69.627027 288.027568,64.7156757 C287.952018,62.6796879 287.485716,60.6772145 286.654054,58.8172973 C286.136757,57.532973 285.887027,56.1654054 285.464865,54.8394595 C284.927755,52.9908878 284.124569,51.2302884 283.080541,49.612973 C282.789888,49.1321357 282.426891,48.6989467 282.004324,48.3286486 C281.272615,47.8313639 280.443742,47.4949507 279.572432,47.3416216 C277.682147,46.7795688 275.723259,46.4814335 273.751351,46.4556757 C271.777297,46.527027 269.743784,47.2108108 268.471351,48.7091892 C267.502162,49.8567568 267.056216,51.3432432 266.289189,52.6335135 C265.932145,53.1618056 265.608452,53.7118858 265.32,54.2805405 C264.993088,55.1444386 264.812239,56.0567223 264.784865,56.98 C264.475676,60.7259459 264.212072,64.4758559 263.994054,68.2297297 C263.892973,69.9362162 263.803784,71.6545946 263.869189,73.367027 C263.922703,74.6989189 264.065405,76.0248649 264.208108,77.3508108 L265.617297,90.3367568 C265.944324,93.387027 265.712432,96.2410811 265.985946,99.2972973 C266.651892,106.676216 265.064324,114.055135 263.435135,121.297297 C262.656216,124.74 261.853514,128.23027 260.188649,131.345946 C258.72,134.104865 256.52,136.905405 257.102703,139.979459 C257.304865,141.04973 257.845946,142.048649 257.929189,143.130811 C257.888485,143.80098 257.954719,144.473357 258.125405,145.122703 C258.623289,146.028795 259.649504,146.509458 260.664324,146.311892 C261.841681,146.105175 262.928323,145.545264 263.78,144.706486 L263.78,144.706486 Z" id="Shape" fill="#3F3D56" fill-rule="nonzero"></path>
            <path d="M264.683784,110.511351 C264.90973,112.217838 264.737297,113.948108 264.820541,115.666486 C265.007143,117.879642 265.405359,120.069829 266.00973,122.207027 C266.604324,124.585405 267.365405,127.249189 269.464324,128.569189 C269.990752,128.842697 270.493878,129.158891 270.968649,129.514595 C271.447441,129.892208 271.641739,130.527234 271.456216,131.108108 L269.821081,130.834595 C270.327343,131.221638 270.567144,131.864471 270.43806,132.488523 C270.308976,133.112575 269.833827,133.607522 269.215562,133.761959 C268.597296,133.916397 267.945214,133.703022 267.537838,133.212973 C267.599838,133.7487 267.549206,134.29147 267.389189,134.806486 C267.219572,135.324121 266.744422,135.680483 266.2,135.698378 C265.891745,135.650504 265.599857,135.528033 265.34973,135.341622 L261.080541,132.695676 C259.801349,132.007065 258.737466,130.978165 258.006486,129.722703 L256.139459,126.91027 C255.727916,126.368195 255.401124,125.766737 255.17027,125.126486 C254.474595,122.748108 256.418919,120.108108 255.408108,117.866486 C255.104489,117.314046 254.748048,116.792328 254.343784,116.308649 C252.185405,113.335676 252.322162,109.292432 252.56,105.605946 C252.637297,104.363243 252.863243,102.888649 253.987027,102.347568 C254.878919,101.913514 255.949189,102.3 256.775676,102.841081 C257.602162,103.382162 258.333514,104.095676 259.272973,104.416757 C259.867568,104.618919 260.521622,104.642703 261.116216,104.856757 C261.948649,105.148108 262.721622,106.283784 263.280541,106.955676 C264.070847,107.986779 264.556914,109.218424 264.683784,110.511351 L264.683784,110.511351 Z" id="Shape" fill="#FBBEBE" fill-rule="nonzero"></path>
            <path d="M212.579459,57.0751351 C212.074463,58.2344396 211.365576,59.2937418 210.486486,60.2027027 C209.590712,61.1237916 208.310952,61.5650879 207.037838,61.3918919 C205.717838,61.1302703 204.748649,60.0421622 203.874595,59.0135135 C201.591351,56.3318919 199.278378,53.6145946 197.744324,50.4394595 C195.401622,45.6054054 195.027027,40.0875676 194.688108,34.7302703 C194.604865,33.3508108 194.533514,31.8881081 195.193514,30.6810811 C196.031892,29.1410811 197.80973,28.4156757 199.450811,27.8032432 L208.518378,24.4140541 C209.074119,24.1508524 209.689196,24.0380882 210.302162,24.087027 C211.723243,24.3248649 212.246486,26.0372973 212.632973,27.4227027 C213.32472,29.9122672 214.474043,32.2512391 216.022162,34.32 C218.055676,37.0313514 222.616216,40.6821622 220.011892,44.0654054 C216.866486,48.1205405 214.868649,52.4967568 212.579459,57.0751351 Z" id="Shape" fill="#BE6F72" fill-rule="nonzero"></path>
            <path d="M224.18,41.6037838 C228.151892,45.3378378 229.495676,51.152973 229.305405,56.5935135 C229.115135,62.0340541 227.604865,67.3378378 226.742703,72.712973 C225.880541,78.0881081 225.708108,83.8259459 228.044865,88.767027 C228.847568,90.4616216 229.941622,92.0313514 230.500541,93.8210811 C230.969164,95.5899744 231.128086,97.4266319 230.97027,99.2497297 C230.960635,101.171629 230.593676,103.074977 229.888108,104.862703 C228.621622,107.669189 226.017297,109.619459 223.525946,111.403243 C218.442162,115.077838 213.257297,118.811892 207.287568,120.732432 C203.244324,122.034595 198.963243,122.462703 194.72973,122.694595 C191.863363,122.92303 188.98071,122.841295 186.131892,122.450811 C181.148547,121.620324 176.568977,119.195969 173.080541,115.541622 C172.472732,114.952595 171.971782,114.262532 171.6,113.502162 C171.23675,112.51268 171.061316,111.464105 171.082703,110.41027 C170.94,106.505766 170.963784,102.601261 171.154054,98.6967568 C171.263229,94.9757518 171.775593,91.2775574 172.682162,87.667027 C173.817838,83.5048649 175.785946,79.6043243 177.278378,75.5491892 C182.475135,61.4513514 181.951892,45.4091892 189.17027,32.2448649 C190.728108,29.4027027 193.332432,26.4118919 196.543243,26.8637838 C197.160898,26.9009446 197.742194,27.1682558 198.172432,27.612973 C198.541379,28.1541512 198.747704,28.7896318 198.767027,29.4443243 C199.534054,35.8421622 200.622162,42.4064865 203.636757,48.18 C204.825946,50.4454054 206.60973,53.8940541 209.350811,54.5005405 C212.091892,55.107027 213.709189,52.4908108 215.177838,50.6356757 C217.758541,47.2337429 220.786594,44.1956892 224.18,41.6037838 L224.18,41.6037838 Z" id="Shape" fill="#E3E8F4" fill-rule="nonzero"></path>
            <path d="M243.189189,31.9772973 C243.99926,32.4151583 244.755533,32.9459468 245.442703,33.5589189 C247.226486,35.2475676 247.880541,37.8340541 247.868649,40.2837838 C247.856757,42.7335135 247.274054,45.1475676 246.917297,47.5735135 C245.96,54.1140541 246.774595,60.8091892 247.155135,67.432973 C247.271111,68.5024151 247.206794,69.5837378 246.964865,70.6318919 C246.673514,71.6308108 246.072973,72.5108108 245.686486,73.48 C244.550811,76.3459459 245.407027,79.6162162 244.741081,82.6248649 C244.027568,85.8297297 241.583784,88.7432432 242.041622,91.9956757 C242.225946,93.2681081 242.838378,94.4394595 243.1,95.7 C243.361622,96.9605405 243.135676,98.4827027 242.047568,99.1605405 C240.959459,99.8383784 239.377838,99.3448649 238.081622,99.7194595 C237.555035,99.91386 237.042469,100.144316 236.547568,100.409189 C234.543784,101.312973 232.153514,101.003784 230.179459,100.016757 C228.244712,98.9607767 226.505142,97.5811878 225.036216,95.9378378 C222.770811,93.6189189 220.576757,91.08 219.583784,87.9940541 C218.132973,83.5227027 219.423243,78.652973 220.998919,74.2172973 C222.574595,69.7816216 224.453514,65.2983784 224.174054,60.5832432 C224.019459,57.9432432 223.187027,55.4043243 222.687568,52.8118919 C222.069323,49.2200293 221.847993,45.5710657 222.027568,41.9308108 C222.104865,39.267027 222.283243,36.52 223.430811,34.1118919 C225.093153,30.8477477 228.300843,28.6525408 231.945405,28.2848649 C236.107568,27.832973 239.675135,29.9556757 243.189189,31.9772973 Z" id="Shape" fill="#3F3D56" fill-rule="nonzero"></path>
            <path d="M231.945405,89.4508108 C231.987212,91.3534099 232.328325,93.2375619 232.956216,95.0340541 C234.020541,92.6081081 234.145405,89.8848649 234.288108,87.2448649 C234.882703,78.1535135 236.898378,69.5794595 239.044865,60.7735135 C237.481081,61.9627027 236.601081,64.9356757 235.851892,66.7194595 C232.878623,73.9126874 231.544177,81.6776601 231.945405,89.4508108 L231.945405,89.4508108 Z" id="Shape" fill="#000000" fill-rule="nonzero" opacity="0.1"></path>
            <path d="M191.863784,26.1027027 C188.997838,26.8578378 186.512432,28.5583784 183.735676,29.6702703 C180.851892,30.8594595 177.748108,31.3648649 174.721622,32.0962162 C167.717297,33.7967568 160.683243,36.9540541 156.455676,42.7989189 C153.34,47.0978378 152.04973,52.4075676 149.915135,57.2772973 C148.131351,61.3621622 145.752973,65.1913514 144.438919,69.4427027 C142.720541,74.9902703 142.916757,80.9362162 143.338919,86.7275676 C143.683784,91.4843243 144.207027,96.2945946 146.365405,100.51027 C147.495135,102.722162 149.052973,104.702162 150.182703,106.914054 C151.538378,109.571892 152.251892,112.503243 153.381622,115.238378 C154.511351,117.973514 156.17027,120.708649 158.792432,122.135676 L163.132973,119.596757 C169.608108,115.809189 176.083243,112.015676 182.356216,107.901081 C187.826486,104.333514 193.344324,100.236757 196.257838,94.3740541 C198.838378,89.1951351 199.094054,83.1421622 198.428108,77.3924324 C197.762162,71.6427027 196.24,66.0178378 195.455135,60.2859459 C194.455294,53.0716525 194.605812,45.7444439 195.901081,38.5772973 C196.495676,35.3427027 198.077297,32.0010811 198.404324,28.7783784 C198.767027,25.3356757 194.343243,25.4486486 191.863784,26.1027027 Z" id="Shape" fill="#3F3D56" fill-rule="nonzero"></path>
            <path d="M165.02973,120.625405 C168.353514,123.770811 173.134054,124.686486 177.29027,126.571351 C180.378312,128.005176 183.158868,130.024461 185.477838,132.517297 C186.756216,133.920541 187.992973,135.829189 187.350811,137.612973 C186.80973,139.147027 185.150811,139.931892 183.628649,140.502703 C181.737838,141.216216 179.627027,141.846486 177.742162,141.127027 C176.636216,140.704865 175.744324,139.860541 174.727568,139.26 C172.236216,137.779459 169.096757,137.773514 166.54,136.405946 C162.936757,134.479459 161.141081,130.24 157.751892,127.950811 C155.896757,126.702162 153.334054,125.679459 153.143784,123.44973 C153.135045,122.643422 153.305646,121.845254 153.643243,121.112973 C154.327027,119.293514 155.492432,113.044324 158.096757,113.210811 C160.932973,113.395135 162.918919,119.121081 165.02973,120.625405 Z" id="Shape" fill="#FBBEBE" fill-rule="nonzero"></path>
            <path d="M147.614054,92.7567568 C148.702162,96.6691892 151.229189,100.004865 153.851351,103.108649 C155.736216,105.338378 157.805405,107.764324 157.870811,110.683784 C157.93027,113.442703 156.087027,115.981622 153.708649,117.390811 C151.33027,118.8 148.52973,119.251892 145.776757,119.43027 C143.574448,119.642306 141.352221,119.487594 139.200541,118.972432 C133.765946,117.497838 129.996216,112.758919 125.721081,109.096216 C123.182162,106.925946 120.328108,105.035135 118.383784,102.317838 C116.439459,99.6005405 115.618919,95.7 117.533514,92.9589189 C118.224409,92.0703878 119.023361,91.2714364 119.911892,90.5805405 C123.158986,87.7651274 125.928074,84.4418205 128.111351,80.74 C128.991351,79.2475676 129.835676,77.6302703 131.316216,76.7324324 C133.438919,75.4421622 136.162162,76.0308108 138.564324,76.6610811 C141.174595,77.3448649 148.52973,78.6827027 149.041081,82.0124324 C149.249189,83.38 147.554595,85.5086486 147.298919,86.9772973 C146.973503,88.9032838 147.081155,90.8775713 147.614054,92.7567568 L147.614054,92.7567568 Z" id="Shape" fill="#FBBEBE" fill-rule="nonzero"></path>
            <path d="M161.057838,100.212973 C161.836775,101.624656 162.477933,103.108081 162.972432,104.642703 C164.785946,110.945405 161.545405,117.438378 159.999459,123.812432 C158.025405,131.976216 158.863784,140.514595 158.768649,148.916216 C158.727027,152.757297 158.316757,156.984865 155.551892,159.648649 C154.838378,160.326486 153.982162,160.897297 153.500541,161.753514 C153.202879,162.380897 152.981307,163.041624 152.840541,163.721622 C151.98528,166.697893 149.817343,169.120468 146.953924,170.299659 C144.090504,171.47885 140.845288,171.285478 138.142162,169.774595 C135.888649,168.52 133.932432,166.343784 131.351892,166.278378 C130.540477,166.317553 129.732266,166.406913 128.931892,166.545946 C126.363243,166.801622 123.848108,165.85027 121.44,164.916757 C120.865241,164.735246 120.329014,164.44899 119.858378,164.072432 C119.424324,163.674054 119.144865,163.138919 118.746486,162.710811 C117.277838,161.129189 114.768649,161.402703 112.651892,160.962703 C109.427884,160.241251 106.9101,157.723467 106.188649,154.499459 C105.760541,152.454054 106.123243,150.337297 106.48,148.274054 L108.073514,139.081622 C108.742225,135.709853 109.204884,132.300474 109.458919,128.872432 C109.654273,124.998455 109.322225,121.115899 108.471892,117.331351 C107.77027,114.239459 106.723784,111.212973 106.343243,108.061622 C105.680156,102.413835 107.165942,96.7232748 110.505405,92.1205405 C111.331892,90.9848649 112.414054,89.8491892 113.817297,89.7421622 C114.952973,89.6410811 116.017297,90.2475676 117.004324,90.8302703 C125.578378,95.9041441 134.211892,100.872973 142.904865,105.736757 C145.283243,107.074595 147.715135,108.418378 150.367027,109.078378 C151.163784,109.280541 152.305405,109.197297 152.418378,108.388649 C152.432553,108.08041 152.351597,107.775268 152.186486,107.514595 C150.7,104.654595 148.547568,102.198919 146.835135,99.4756757 C145.122703,96.7524324 143.802703,93.5297297 144.308108,90.3664865 C144.997838,85.9902703 149.064865,83.0945946 152.388649,86.5254054 C156.116757,90.42 158.614054,95.4264865 161.057838,100.212973 Z" id="Shape" fill="#F86D70" fill-rule="nonzero"></path>
            <path d="M134.431892,155.706486 C141.406486,156.152432 148.535676,156.628108 154.992973,159.303784 C157.068108,160.16 159.268108,161.265946 161.45027,160.736757 C162.536395,160.406225 163.546665,159.864721 164.423243,159.143243 C167.111621,157.172024 169.651439,155.005825 172.022162,152.662162 C171.784324,151.36 170.018378,151.181622 168.698378,151.193514 C165.479802,151.212703 162.304761,150.449551 159.446486,148.96973 C158.506965,148.404679 157.510461,147.940308 156.473514,147.584324 C153.649189,146.805405 150.771351,148.291892 147.935135,149.017297 C143.737297,150.087568 139.313514,149.463243 135.026486,148.832973 L123.455676,147.126486 C122.379459,146.971892 121.166486,146.847027 120.31027,147.512973 C119.737918,148.05379 119.345613,148.757449 119.186486,149.528649 C117.771351,154.285405 118.449189,154.683784 123.158378,154.981081 L134.431892,155.706486 Z" id="Shape" fill="#FBBEBE" fill-rule="nonzero"></path>
            <ellipse id="Oval" fill="#000000" fill-rule="nonzero" opacity="0.1" cx="292.427568" cy="54.1259459" rx="19.027027" ry="19.027027"></ellipse>
            <ellipse id="Oval" fill="#FBBEBE" fill-rule="nonzero" cx="292.290811" cy="53.2994595" rx="19.027027" ry="19.027027"></ellipse>
            <path d="M308.350811,29.1410811 C309.872973,30.0805405 311.466486,31.0913514 312.298919,32.672973 C312.746539,33.7467362 313.087108,34.8620501 313.315676,36.0027027 C314.356216,39.5702703 317.127027,42.6681081 317.293514,46.3843243 C317.477838,50.4572973 314.421622,53.9951351 310.961081,56.1297297 C310.171248,56.7118858 309.218942,57.0320936 308.237838,57.0454054 C307.232973,56.98 306.364865,56.3497297 305.443243,55.9454054 C301.536757,54.2091892 297.166486,56.4091892 293.028108,57.42 C288.727626,58.4585579 284.215338,58.1936163 280.065946,56.6589189 C277.836216,55.8264865 275.671892,54.5778378 274.274595,52.6454054 C272.877297,50.712973 272.377838,48.0075676 273.567027,45.9324324 C274.161622,44.8740541 275.148649,43.9167568 275.083243,42.7097297 C275.047568,41.9843243 274.619459,41.3302703 274.488649,40.6167568 C274.298378,39.4810811 274.892973,38.3751351 275.499459,37.4059459 C278.251305,32.9776679 281.728683,29.0440108 285.785946,25.7697297 C286.975135,24.7945946 288.348649,23.8432432 289.906486,23.7718919 C293.034054,23.6351351 295.721622,25.9659459 298.938378,25.9778378 C302.589189,25.9897297 305.211351,27.2027027 308.350811,29.1410811 Z" id="Shape" fill="#3F3D56" fill-rule="nonzero"></path>
            <ellipse id="Oval" fill="#000000" fill-rule="nonzero" opacity="0.1" cx="222.247568" cy="29.6583784" rx="19.6216216" ry="19.6216216"></ellipse>
            <ellipse id="Oval" fill="#BE6F72" fill-rule="nonzero" cx="222.592432" cy="29.1767568" rx="19.6216216" ry="19.6216216"></ellipse>
            <path d="M233.075135,40.26 C235.845946,41.8118919 239.264865,41.6513514 242.356757,40.9437838 C244.110303,40.6142464 245.772861,39.9127279 247.232432,38.8864865 C248.701216,37.8369538 249.606557,36.1709512 249.688108,34.3675676 C249.688108,32.3756757 248.38,30.58 248.219459,28.5881081 C248.023243,26.0789189 249.658378,23.76 249.830811,21.2389189 C250.003243,18.7178378 248.760541,16.4464865 247.547568,14.2821622 C245.460541,10.5659459 243.29027,6.80216216 240.115135,3.96 C236.94,1.11783784 232.54,-0.695675676 228.377838,0.261621622 C226.332432,0.731351351 224.435676,1.83135135 222.348649,2.04540541 C220.493514,2.21783784 218.662162,1.65891892 216.812973,1.42108108 C214.963784,1.18324324 212.888649,1.33189189 211.562703,2.61027027 C210.837297,3.32378378 210.373514,4.32864865 209.523243,4.85189189 C208.946672,5.11783784 208.350277,5.33850421 207.739459,5.51189189 C205.592973,6.37405405 204.611892,8.79405405 203.850811,10.9702703 L198.749189,25.5913514 C200.455676,26.7805405 202.512973,27.3216216 204.38,28.2372973 C206.247027,29.152973 208.060541,30.6156757 208.441081,32.6610811 C208.732432,34.212973 208.179459,35.9967568 209.083243,37.292973 C209.90973,38.4821622 211.592432,38.6843243 213.019459,38.4821622 C214.446486,38.28 215.879459,37.7864865 217.306486,38.0064865 C220.874054,38.5475676 222.2,40.7356757 225.5,38.0064865 C228.8,35.2772973 230.007027,38.5356757 233.075135,40.26 Z" id="Shape" fill="#3F3D56" fill-rule="nonzero"></path>
            <ellipse id="Oval" fill="#000000" fill-rule="nonzero" opacity="0.1" cx="139.206486" cy="73.4264865" rx="17.8378378" ry="17.8378378"></ellipse>
            <ellipse id="Oval" fill="#FBBEBE" fill-rule="nonzero" cx="139.896216" cy="72.4572973" rx="17.8378378" ry="17.8378378"></ellipse>
            <path d="M153.554054,55.0178378 C149.307216,51.7596327 144.535473,49.2500945 139.444324,47.5972973 C136.185946,46.5389189 132.642162,45.8135135 129.336216,46.7886486 C124.852973,48.067027 118.853514,49.9756757 116.076757,53.7275676 C114.709189,55.5708108 113.323784,57.4675676 112.663784,59.6735135 C111.343784,64.1091892 113.222703,68.8362162 113.097838,73.4621622 C112.949189,78.8551351 110.089189,83.7783784 106.967568,88.1783784 C103.845946,92.5783784 103.215676,98.8810811 101.372432,103.958919 C100.742162,105.701081 100.54,108.121081 102.163243,108.995135 C103.59027,109.785946 105.314595,108.798919 106.634595,107.847568 L114.572432,102.10973 C115.189422,101.602554 115.900772,101.222629 116.665405,100.991892 C118.300541,100.611351 119.9,101.634054 121.267568,102.603243 L137.916216,114.376216 C138.582468,113.016153 138.610783,111.43055 137.993514,110.047568 C139.557297,110.529189 140.692973,111.831351 142.066486,112.758919 C143.44,113.686486 145.527027,113.98973 146.525946,112.693514 C147.524865,111.397297 146.76973,109.655135 145.657838,108.608649 C144.545946,107.562162 143.083243,106.937838 141.995135,105.861622 C139.836757,103.715135 139.616757,100.325946 138.255135,97.6145946 C137.28,95.7118919 135.704324,94.1183784 135.014595,92.0908108 C133.890811,88.7789189 135.359459,85.2113514 136.798378,82.0243243 C138.516757,78.2427027 140.461081,74.2054054 144.117838,72.2313514 C145.348649,71.5654054 146.71027,71.172973 147.970811,70.5664865 C151.11027,69.0621622 155.028649,65.5124324 156.562703,62.3313514 C157.906486,59.507027 155.837297,56.7778378 153.554054,55.0178378 Z" id="Shape" fill="#3F3D56" fill-rule="nonzero"></path>
            <path d="M126.553514,113.965946 C128.26,115.054054 130.186486,115.74973 131.863243,116.885405 C133.54,118.021081 135.008649,119.745405 135.056216,121.767027 C135.103784,123.699459 133.867027,125.394054 132.677838,126.928108 L118.193514,145.937297 L125.578378,147.893514 C124.389189,149.534595 124.085946,151.627568 123.467568,153.554054 C122.849189,155.480541 121.683784,157.484324 119.70973,157.98973 C117.925946,158.447568 116.058919,157.508108 114.215676,157.615135 C112.854054,157.698378 111.56973,158.340541 110.208108,158.394054 C108.454054,158.459459 106.824865,157.537838 105.362162,156.562703 C102.103784,154.380541 98.8691892,151.252973 98.892973,147.328649 C98.9701572,146.001401 99.2364478,144.691972 99.6837838,143.44 C101.818378,136.477297 104.03027,129.348108 108.454054,123.556757 C110.832432,120.464865 113.74,117.854595 116.647568,115.262162 C117.308663,114.59656 118.086683,114.058395 118.942703,113.674595 C120.845405,112.961081 122.920541,113.841081 124.888649,114.411892 C126.856757,114.982703 129.336216,115.065946 130.471892,113.383243" id="Shape" fill="#000000" fill-rule="nonzero" opacity="0.1"></path>
            <path d="M125.929189,112.794595 C127.635676,113.876757 129.562162,114.578378 131.238919,115.714054 C132.915676,116.84973 134.384324,118.574054 134.437838,120.58973 C134.491351,122.605405 133.248649,124.222703 132.059459,125.756757 L117.569189,144.748108 L124.954054,146.704324 C123.764865,148.345405 123.461622,150.432432 122.843243,152.364865 C122.224865,154.297297 121.059459,156.295135 119.085405,156.800541 C117.301622,157.258378 115.434595,156.318919 113.591351,156.425946 C112.22973,156.503243 110.945405,157.151351 109.583784,157.198919 C107.82973,157.264324 106.200541,156.342703 104.737838,155.367568 C101.479459,153.191351 98.2448649,150.057838 98.2745946,146.139459 C98.345822,144.811985 98.6102248,143.50199 99.0594595,142.250811 C101.194054,135.282162 103.405946,128.152973 107.82973,122.367568 C110.208108,119.26973 113.121622,116.659459 116.023243,114.043243 C116.687475,113.381397 117.464767,112.843736 118.318378,112.455676 C120.221081,111.742162 122.296216,112.622162 124.264324,113.198919 C126.232432,113.775676 128.711892,113.852973 129.847568,112.17027" id="Shape" fill="#F86D70" fill-rule="nonzero"></path>
            <g id="Group" opacity="0.1" transform="translate(272.324324, 37.459459)" fill-rule="nonzero" fill="#000000">
                <path d="M2.56864865,11.2437838 C3.96594595,13.1762162 6.13621622,14.4308108 8.36,15.2572973 C12.5081175,16.7980711 17.0222345,17.0631202 21.3221622,16.0183784 C25.4843243,15.0075676 29.8308108,12.8075676 33.7372973,14.5437838 C34.6589189,14.9540541 35.5210811,15.5783784 36.5259459,15.6497297 C37.509065,15.6319846 38.4625264,15.3100096 39.2551351,14.7281081 C41.6632432,13.2416216 43.8751351,11.0772973 44.9335135,8.52648649 C44.9335135,8.6572973 44.9335135,8.78810811 44.9691892,8.92486486 C45.1535135,12.9978378 42.0972973,16.5356757 38.6367568,18.6702703 C37.8469237,19.2524263 36.8946173,19.5726341 35.9135135,19.5859459 C34.9086486,19.5205405 34.0405405,18.8902703 33.1189189,18.4859459 C29.2124324,16.7497297 24.8421622,18.9497297 20.7037838,19.9605405 C16.4033012,20.9990984 11.891014,20.7341568 7.74162162,19.1994595 C5.51189189,18.367027 3.34756757,17.1183784 1.95027027,15.1859459 C0.552972973,13.2535135 0.0535135135,10.5481081 1.2427027,8.47297297 L1.33189189,8.32432432 C1.52439135,9.37659873 1.94667993,10.3734434 2.56864865,11.2437838 L2.56864865,11.2437838 Z" id="Shape"></path>
                <path d="M3.35945946,1.30810811 C3.40702703,2.22378378 2.85405405,2.99081081 2.32486486,3.76972973 C2.25113115,3.57661157 2.193458,3.37773866 2.15243243,3.17513514 C1.97405405,2.11081081 2.48540541,1.07621622 3.05027027,0.142702703 C3.21230408,0.513080871 3.31657917,0.906117781 3.35945946,1.30810811 L3.35945946,1.30810811 Z" id="Shape"></path>
            </g>
            <path d="M205.242162,9.03189189 L200.140541,23.647027 C201.847027,24.8362162 203.904324,25.3832432 205.771351,26.292973 C207.638378,27.2027027 209.451892,28.6713514 209.832432,30.7167568 C210.123784,32.2686486 209.570811,34.0524324 210.474595,35.3545946 C211.301081,36.5437838 212.983784,36.74 214.410811,36.5437838 C215.837838,36.3475676 217.270811,35.8481081 218.697838,36.0681081 C222.265405,36.6091892 223.591351,38.7972973 226.891351,36.0978378 C230.191351,33.3983784 231.386486,36.6032432 234.454595,38.3275676 C237.225405,39.8854054 240.644324,39.7248649 243.736216,39.0113514 C245.489289,38.6836106 247.151814,37.9841337 248.611892,36.96 C248.819499,36.7902576 249.017975,36.6096446 249.206486,36.4189189 C248.751243,37.3933997 248.065543,38.2423618 247.208649,38.8924324 C245.749077,39.9186738 244.086519,40.6201923 242.332973,40.9497297 C239.241081,41.6572973 235.792432,41.8178378 233.051351,40.2659459 C229.983243,38.5416216 228.722703,35.3962162 225.488108,38.0362162 C222.253514,40.6762162 220.85027,38.5475676 217.294595,38.0362162 C215.867568,37.8162162 214.440541,38.3097297 213.007568,38.5118919 C211.574595,38.7140541 209.897838,38.5118919 209.071351,37.3227027 C208.167568,36.0264865 208.720541,34.2427027 208.429189,32.6908108 C208.048649,30.6454054 206.235135,29.1767568 204.368108,28.267027 C202.501081,27.3572973 200.443784,26.8043243 198.737297,25.6210811 L203.862703,10.9643243 C204.457297,9.35297297 205.111351,7.61081081 206.300541,6.46324324 C205.888519,7.29383927 205.534869,8.15213382 205.242162,9.03189189 Z" id="Shape" fill="#000000" fill-rule="nonzero" opacity="0.1"></path>
            <g id="Group" opacity="0.1" transform="translate(100.486486, 52.324324)" fill-rule="nonzero" fill="#000000">
                <path d="M38.832973,58.3654054 C40.147027,58.96 41.8059459,59.0491892 42.6383784,57.9372973 C43.5718919,56.7481081 42.8821622,54.9048649 41.7702703,53.8524324 C40.6583784,52.8 39.1956757,52.1816216 38.1075676,51.1054054 C35.9491892,48.9648649 35.7291892,45.5756757 34.3675676,42.8643243 C33.3924324,40.9556757 31.8167568,39.3621622 31.127027,37.3345946 C30.0032432,34.0286486 31.4718919,30.4551351 32.9108108,27.2740541 C34.6291892,23.4924324 36.5735135,19.4551351 40.2302703,17.4810811 C41.4610811,16.8151351 42.8227027,16.4227027 44.0832432,15.8162162 C47.2227027,14.3118919 51.1410811,10.7562162 52.6751351,7.57513514 C53.9654054,4.89351351 52.1459459,2.28918919 49.9816216,0.523243243 C51.0340541,1.20702703 52.0627027,1.92648649 53.0616216,2.69351351 C55.3508108,4.4772973 57.4140541,7.1827027 56.0345946,9.99513514 C54.5005405,13.1762162 50.5821622,16.7259459 47.4427027,18.2302703 C46.1821622,18.8248649 44.8205405,19.2291892 43.5897297,19.8951351 C39.932973,21.8691892 37.9886486,25.9064865 36.2702703,29.6881081 C34.8254054,32.8751351 33.3567568,36.4427027 34.4864865,39.7545946 C35.1762162,41.7821622 36.7518919,43.3756757 37.727027,45.2783784 C39.1064865,47.9897297 39.3086486,51.3789189 41.467027,53.5254054 C42.5551351,54.6016216 44.0178378,55.22 45.1297297,56.2724324 C46.2416216,57.3248649 46.9135135,59.1443243 45.9978378,60.3572973 C45.0821622,61.5702703 42.9059459,61.3205405 41.5383784,60.4227027 C40.6167568,59.7983784 39.7783784,58.9778378 38.832973,58.3654054 Z" id="Shape"></path>
                <path d="M2.77081081,53.0913514 L10.7086486,47.3594595 C11.3254038,46.8505563 12.0367043,46.4686365 12.8016216,46.2356757 C14.4367568,45.8610811 16.0362162,46.8837838 17.4037838,47.852973 L34.0524324,59.6259459 C34.7188927,58.2638368 34.7472017,56.6763564 34.1297297,55.2913514 C35.6578378,55.767027 36.7697297,57.0394595 38.0956757,57.9313514 C37.9029632,57.8439671 37.7042603,57.770447 37.5010811,57.7113514 C38.1183501,59.0943342 38.0900358,60.6799371 37.4237838,62.04 L20.7751351,50.267027 C19.4075676,49.2978378 17.8021622,48.2751351 16.172973,48.6556757 C15.4083395,48.8864124 14.6969899,49.2663378 14.08,49.7735135 L6.14216216,55.5113514 C4.82216216,56.4627027 3.09783784,57.4497297 1.67081081,56.6589189 C0.876377056,56.1707454 0.402677142,55.2958737 0.428108108,54.3637838 C1.27029834,54.063758 2.06065898,53.6344758 2.77081081,53.0913514 L2.77081081,53.0913514 Z" id="Shape"></path>
            </g>
            <path d="M301.572432,144.248649 C301.572432,144.248649 267.502162,146.977838 260.723784,142.14973 L291.892432,137.345405 L301.572432,144.248649 Z" id="Shape" fill="#E3E8F4" fill-rule="nonzero"></path>
            <path d="M301.572432,144.248649 C301.572432,144.248649 267.502162,146.977838 260.723784,142.14973 L291.892432,137.345405 L301.572432,144.248649 Z" id="Shape" fill="#000000" fill-rule="nonzero" opacity="0.1"></path>
            <path d="M301.572432,144.248649 L292.029189,138.207568 C292.029189,138.207568 263.56,146.389189 255.758919,143.011892 L263.696757,131.875135 L291.904324,137.375135 L301.572432,144.248649 Z" id="Shape" fill="#E3E8F4" fill-rule="nonzero"></path>
            <path d="M259.237297,64.1448649 C258.185003,65.4742131 257.340943,66.9558285 256.734054,68.5389189 C256.460541,69.3772973 256.323784,70.2513514 256.091892,71.1016216 C255.439435,73.2190243 254.434331,75.2111392 253.118919,76.9940541 C250.187568,81.2572973 246.524865,85.3718919 245.787568,90.4913514 C245.430811,93.0183784 245.823243,95.587027 246.322703,98.0902703 C246.59307,99.7409584 247.064316,101.352382 247.725946,102.888649 C248.481081,104.517838 249.604865,105.950811 250.467027,107.526486 C251.254563,109.073099 251.918613,110.679544 252.452973,112.330811 C253.46973,111.314054 254.07027,109.952432 254.884865,108.763243 C255.699459,107.574054 256.912432,106.503784 258.345405,106.485946 C259.998378,106.485946 261.36,107.853514 262.995135,108.067568 C263.250332,108.119013 263.515028,108.094198 263.756216,107.996216 C264.350811,107.716757 264.398378,106.914054 264.350811,106.271892 C263.881081,101.782703 261.312432,97.352973 262.525405,93.0005405 C263.643243,88.9751351 267.638919,86.46 269.737838,82.8508108 C271.26,80.2286486 271.711892,77.1367568 272.116216,74.1281081 C272.621622,70.5308108 273.132973,66.9037838 272.907027,63.2827027 C272.794054,61.4572973 271.343243,49.9221622 268.691351,51.1291892 C267.76973,51.5454054 266.967027,53.3113514 266.39027,54.1021622 L264.011892,57.4735135 L259.237297,64.1448649 Z" id="Shape" fill="#3F3D56" fill-rule="nonzero"></path>
            <polygon id="Shape" fill="#E3E8F4" fill-rule="nonzero" points="188.07027 138.558378 168.942162 154.130811 144.331892 149.730811 160.903243 136.721081"></polygon>
            <polygon id="Shape" fill="#000000" fill-rule="nonzero" opacity="0.1" points="188.76 137.589189 169.631892 153.161622 145.021622 148.761622 161.592973 135.751892"></polygon>
            <polygon id="Shape" fill="#E3E8F4" fill-rule="nonzero" points="188.623243 136.762703 169.495135 152.329189 144.878919 147.935135 161.456216 134.919459"></polygon>
            <polygon id="Shape" fill="#000000" fill-rule="nonzero" opacity="0.1" points="189.176216 134.961081 170.042162 150.533514 145.431892 146.133514 162.009189 133.123784"></polygon>
            <polygon id="Shape" fill="#E3E8F4" fill-rule="nonzero" points="189.033514 134.134595 169.905405 149.707027 145.295135 145.307027 161.866486 132.297297"></polygon>
            <path d="M440.648108,346.91027 L440.648108,346.91027 C441.563918,346.464736 442.640758,346.500714 443.524786,347.006383 C444.408815,347.512053 444.985724,348.422028 445.065946,349.437297 L446.13027,363.237838 L439.815676,364.379459 L436.485946,354.402162 L440.648108,346.91027 Z" id="Shape" fill="#3F3D56" fill-rule="nonzero"></path>
            <path d="M219.726486,254.409189 L123.087027,303.451351 C120.826899,304.604325 119.40809,306.931207 119.418144,309.468415 C119.428197,312.005624 120.8654,314.32119 123.134595,315.456216 L331.272432,419.908649 C338.792169,423.674442 347.692787,423.451536 355.014595,419.314054 L442.681622,369.879459 C444.849133,368.642739 446.153577,366.307443 446.070024,363.813329 C445.986472,361.319216 444.528663,359.076454 442.283243,357.987568 L225.666486,254.343784 C223.783647,253.442498 221.589023,253.466663 219.726486,254.409189 L219.726486,254.409189 Z" id="Shape" fill="#3F3D56" fill-rule="nonzero"></path>
            <path d="M122.438919,294.918919 L119.412432,297.166486 L119.174595,307.928649 C119.135443,309.64066 120.077529,311.224656 121.600541,312.007568 L333.294054,420.64 C334.270976,421.144006 335.439931,421.102523 336.378669,420.530536 C337.317407,419.95855 337.890248,418.938731 337.89027,417.839459 L337.89027,402.207568 L122.438919,294.918919 Z" id="Shape" fill="#3F3D56" fill-rule="nonzero"></path>
            <path d="M219.726486,241.934595 L123.087027,290.970811 C120.825219,292.120436 119.402981,294.44519 119.409264,296.982388 C119.415547,299.519586 120.849283,301.837268 123.116757,302.975676 L331.272432,407.428108 C338.792878,411.190723 347.691919,410.967857 355.014595,406.833514 L442.681622,357.392973 C444.849133,356.156253 446.153577,353.820956 446.070024,351.326843 C445.986472,348.832729 444.528663,346.589968 442.283243,345.501081 L225.666486,241.863243 C223.782727,240.96382 221.588098,240.990182 219.726486,241.934595 L219.726486,241.934595 Z" id="Shape" fill="#E3E8F4" fill-rule="nonzero"></path>
            <polygon id="Shape" fill="#3F3D56" fill-rule="nonzero" points="239.728649 250.835676 133.248649 304.902162 316.258919 396.41027 426.068649 340.672973"></polygon>
            <ellipse id="Oval" fill="#3F3D56" fill-rule="nonzero" cx="383.228108" cy="373.12" rx="11.2318919" ry="6.65351351"></ellipse>
            <circle id="Oval" fill="#3F3D56" fill-rule="nonzero" cx="178.378378" cy="268.096757" r="1.04054054"></circle>
            <circle id="Oval" fill="#3F3D56" fill-rule="nonzero" cx="175.262703" cy="276.207027" r="1.24864865"></circle>
            <path d="M179.835135,274.125946 L192.315676,268.304865" id="Shape" stroke="#3F3D56"></path>
            <rect id="Rectangle-path" fill="#009688" fill-rule="nonzero" transform="translate(278.130104, 320.630098) rotate(-30.000000) translate(-278.130104, -320.630098) " x="247.086321" y="309.927396" width="62.0875676" height="21.4054054" rx="10.7027027"></rect>
            <rect id="Rectangle-path" fill="#009688" fill-rule="nonzero" transform="translate(309.643229, 336.685749) rotate(-30.000000) translate(-309.643229, -336.685749) " x="278.599446" y="325.983047" width="62.0875676" height="21.4054054" rx="10.7027027"></rect>
            <rect id="Rectangle-path" fill="#009688" fill-rule="nonzero" transform="translate(249.590028, 302.199576) rotate(-30.000000) translate(-249.590028, -302.199576) " x="218.546244" y="291.496873" width="62.0875676" height="21.4054054" rx="10.7027027"></rect>
        </g>
    </g>
</svg>